<?xml version="1.0" encoding="utf-8"?>
<!-- Generator: Adobe Illustrator 25.4.1, SVG Export Plug-In . SVG Version: 6.00 Build 0)  -->
<svg version="1.1" id="Layer_1" xmlns="http://www.w3.org/2000/svg" xmlns:xlink="http://www.w3.org/1999/xlink" x="0px" y="0px"
	 viewBox="0 0 1920 1080" style="enable-background:new 0 0 1920 1080;" xml:space="preserve">
<style type="text/css">
	.st0{clip-path:url(#SVGID_00000014601624443153232320000002904060225144321688_);}
	.st1{clip-path:url(#SVGID_00000116945392924891192090000011318488498914238361_);}
	.st2{fill:#35618E;}
	.st3{fill:#39BDDE;}
	.st4{fill:#0578B0;}
	.st5{fill:#1196C6;}
	.st6{fill:#015F9E;}
	.st7{fill:#54BED8;}
</style>
<g id="Layer_2_00000078021641115017672070000007616643616359315637_">
</g>
<g id="Layer_1_00000085934268645156226930000000103716473186811573_">
	<g>
		<g>
			<defs>
				<rect id="SVGID_1_" x="1.3" y="1.3" width="1920" height="1080"/>
			</defs>
			<clipPath id="SVGID_00000133492431780015489940000000692121183744942751_">
				<use xlink:href="#SVGID_1_"  style="overflow:visible;"/>
			</clipPath>
			<g style="clip-path:url(#SVGID_00000133492431780015489940000000692121183744942751_);">
				<g>
					<defs>
						<rect id="SVGID_00000026854907514781318760000017515975005898540733_" x="1.3" y="1.3" width="1920" height="1080"/>
					</defs>
					<clipPath id="SVGID_00000002345191609230566560000017878193903787239554_">
						<use xlink:href="#SVGID_00000026854907514781318760000017515975005898540733_"  style="overflow:visible;"/>
					</clipPath>
					
						<g id="waves.psd_00000157284178995878707460000013334759701557022648_" style="clip-path:url(#SVGID_00000002345191609230566560000017878193903787239554_);">
						
							<image style="overflow:visible;enable-background:new    ;" width="1921" height="1081" id="Background_00000171691461088679339430000013980639021015475375_" xlink:href="9DFADFAC.jpeg"  transform="matrix(0.9991 0 0 0.9991 1.7218 1.3333)">
						</image>
					</g>
				</g>
			</g>
		</g>
	</g>
	<g>
		<path class="st2" d="M0.1,421c0-138.8,0-277.6-0.1-416.4C0,0.8,0.9,0,4.6,0c636.9,0.1,1273.9,0.1,1910.8,0c3.8,0,4.6,0.8,4.6,4.6
			c-0.1,187.5-0.1,374.9-0.1,562.4c-3.5,1.3-5.9,4.3-9,6.2c-18.5,11.1-36.3,23.2-55.1,33.8c-14.8,8.2-29.5,16.5-44.7,24.1
			c-17.7,8.8-35.4,17.4-53.9,24.4c-13.2,5-26.4,10-40,13.9c-3.5,1-5.4,0.1-6.8-3c-4.1-9.6-9.4-18.6-14.6-27.7
			c-9-15.7-18.6-31-31.7-43.8c-7.3-7.2-14.1-15.3-22.7-21c-12.1-8.2-24.9-14.8-38.9-19.7c-14.6-5.1-29.4-8.8-44.6-9.7
			c-22.8-1.3-45.6-0.6-68,4.3c-12.7,2.7-24.9,7-37.2,11c-5.8,1.8-10.9,5-16.5,7.2c-11,4.4-21.2,10.2-31.4,16
			c-8.9,5.1-17.6,10.7-26.4,16.1c-2.3,1.4-4.6,1.9-6.8-0.3c-9.5-9.5-20.2-17.8-29.9-27.1c-16.7-16-33.6-31.8-50.7-47.3
			c-14.9-13.6-30.2-26.9-47.1-38.3c-18.7-12.7-37.5-25.2-58.2-34.6c-12.1-5.5-24.3-11-37.2-14.3c-10.7-2.7-21.4-5.6-32.7-6.2
			c-16.5-1-33.1-1.6-49.3,1.1c-24.6,4-47.3,14.1-68.7,27c-10.8,6.5-20.9,14.1-31.2,21.4c-10.4,7.5-20.5,15.3-30.6,23
			c-12.2,9.3-23.4,19.9-35.7,29c-10.9,8.1-21.7,16.3-33,24c-16.4,11.2-33.7,20.5-51.5,29.1c-17.9,8.6-36.3,15.7-55.1,21.8
			c-10,3.2-19.9,7-30.1,8.8c-14.4,2.5-28.5,6.3-43.1,7.8c-17.3,1.8-34.6,4.2-52,4.4c-14.6,0.2-29.3,0.3-43.9-0.8
			c-13.9-1.1-27.8-2.4-41.5-4.7c-33.3-5.8-65.9-14.5-97.2-27.5c-23.1-9.6-45.3-20.9-66.2-34.6c-27.5-18-53.7-38-79.5-58.3
			c-17-13.4-34.3-26.3-51.9-38.7c-19.2-13.5-39.2-25.6-60.4-35.8c-23.2-11.2-47.1-19.8-72.5-24.4c-18.4-3.3-37.1-4.4-55.6-1.8
			c-14.2,2-28.5,4.3-42,10C17,415.1,8.5,417.9,0.1,421z"/>
		<path class="st3" d="M0.1,615c0-62.3,0-124.6,0-187c5-0.6,8.2-4.9,13-6c3.1-0.7,6.3-1.3,9-2.8c9.2-5.1,19-8,29.4-9.4
			c13.6-1.8,27.2-3.4,41-2.8c12.8,0.5,25.5,1.3,38.3,2c1.1,0.1,2.4,0.3,3.3,0.9c8.3,5.8,19,4.5,27.8,9.8c8.2,4.9,18.6,6.1,26.9,11
			c12.4,7.3,25.6,12.8,37.9,20.2c10.6,6.5,21.2,13,31.4,20c2.7,1.9,4.8,4.7,7.5,6.5c14.5,9.6,28.4,19.9,42,30.7
			c8.8,7,17.3,14.3,26.7,20.5c10.6,7.1,20.4,15.5,30.9,22.9c3.2,2.2,5.6,5.2,8.9,7.1c11.4,6.8,22.2,14.5,34,20.7
			c10.1,5.2,20.1,10.7,30.5,15.1c7,2.9,14.4,5.1,20.8,8.8c5.6,3.2,11.3,4.3,17.5,4.5c1.1,0,2.5,0.3,3.3,1c4.8,4,9.8,6.8,16.3,5.3
			c0.6-0.2,1.7,0.4,2.2,1c2.5,2.7,5.6,3.4,9.2,4c3.4,0.6,6.5,1.7,10.1,0.9c1.9-0.4,4.6,0.3,6.1,1.6c5.5,4.8,12.5,3.5,18.7,5.1
			c5.8,1.5,12.7-2.2,17.6,3.8c0.2,0.3,1,0.2,1.5,0.2c17.7,1,35.4,2,53.1,3c13.6,0.8,27-1.8,40.7-1.5c9.7,0.2,19.5-1.8,29.3-1.6
			c1.4,0,3,0.1,3.8-1c2.8-3.8,6.7-2.8,10.4-3c4.8-0.3,9.7-0.3,14.3-1.2c3-0.6,6.8,0.2,9-2.2c2.4-2.6,5.1-2.6,8.1-2.5
			c5.6,0.1,11-1.4,15.7-4.2c2.3-1.4,4-2.5,7-2.5c3.6-0.1,7.8-0.3,10.7-2.8c3-2.7,6.2-3.7,10-3.4c2.3,0.2,4.6-0.8,6.8-1.1
			c3.6-0.4,4.8-5.1,7.6-4.6c3.5,0.7,5.6-1.1,8.3-1.9c2.8-0.8,4.1-4.2,6.6-4.1c7.9,0.1,13.5-5.1,20.1-7.9c6.9-3,13.2-7.2,20-10.5
			c6.2-3,11.8-6.8,17.6-10.3c7.9-4.7,15.2-10.3,22.7-15.6c11.6-8.3,22.6-17.3,33.9-25.9c8.7-6.6,15.5-15.3,25-21
			c6.4-3.9,11.4-9.8,17.6-13.8c11.2-7.3,21.8-15.5,33.3-22.5c9.3-5.7,18.1-11.9,28.2-16.1c5.1-2.1,9.8-5.3,15.4-6.6
			c3.5-0.8,7-1.7,9.7-4.5c1.1-1.1,3.3-0.9,5.2-0.9c5.2-0.1,11.1-0.2,15.3-3.1c3.6-2.5,6.9-3.5,11-3.5c11.6,0.1,23.1,2.1,34.8,0.4
			c3.3-0.5,7.5-0.2,10.1,1.6c4.1,2.8,8.5,3.3,13.1,4.2c3.4,0.7,6.6,1.8,10.2,1c3.2-0.7,3.7,3.5,6.5,3.9c9.7,1.6,18.2,6.6,26.9,10.4
			c10.5,4.6,20.8,10.3,31.1,15.6c6.6,3.4,11.9,8.4,18.5,11.6c8.1,3.9,15.9,8.7,22.6,14.5c7.5,6.4,15.1,12.7,22.3,19.4
			c20.2,18.8,40.7,37.2,60.7,56.1c11,10.4,22.5,20,34.6,28.8c1.3,0.9,1.5,2.1,1.4,3.5c-9,7-17.8,14.3-26.9,21
			c-13.1,9.6-25,20.7-38,30.5c-5.1,3.8-8.9,9-13.9,12.8c-15.3,11.6-29.3,24.7-44.2,36.7c-6.4,5.2-13.1,10.2-19.5,15.4
			c-9.5,7.7-19.7,14.6-29.3,22.2c-16.2,12.8-33.6,23.7-50.7,35.2c-9.1,6.1-18.2,12-27.7,17.5c-10.8,6.1-21.2,12.8-32.1,18.6
			c-15.8,8.5-31.4,17.1-47.5,25c-12,5.9-24.2,11.2-36.5,16.5c-9.1,4-18.2,8.2-27.5,11.6c-12.9,4.7-26.2,8.4-39.1,13.3
			c-11.2,4.2-22.9,6.8-34.2,10.5c-3.6,1.2-7.2-0.7-10.2-2.9c-2.2-1.5-4.4-3-6.6-4.5c-11.4-7.5-23-14.5-34.1-22.4
			c-23.3-16.6-46.2-33.8-70.2-49.5c-18.9-12.5-37.5-25.5-57.2-36.9c-15-8.6-30-16.8-45.6-24.1c-23.2-10.8-47.6-18.6-72.3-25.1
			c-19.9-5.3-40.1-9-60.3-12.8c-19.7-3.7-39.6-3.9-59.4-5c-25.5-1.5-51.2-1.8-76.7,1.6c-8.9,1.2-18,1-26.8,2.3
			c-20.5,2.9-40.8,7-61.2,11c-4.1,0.8-7-0.1-10-2.7c-10.2-8.8-20.2-17.8-30.9-25.9c-11.5-8.8-23.6-16.6-35.5-24.8
			c-3.8-2.7-7.2-6.1-11.4-8c-15.6-6.9-30.1-15.9-46.1-21.9c-19.8-7.3-39.7-14.1-60.2-19.2c-19.3-4.7-39-5.8-58.5-8.1
			c-4.8-0.5-9.4,0.4-14.2-0.2c-9.4-1.2-19-1.3-28.4,0C18.6,613.6,9.3,614.2,0.1,615z"/>
		<path class="st4" d="M1919.9,1077.9c-0.4,0.6,1,2.1-1,2c-1.2-0.1-2.3,0-3.5,0c-636.9,0-1273.9,0-1910.8,0.1
			c-3.8,0-4.6-0.8-4.6-4.6c0.1-72.8,0.1-145.6,0.1-218.5c5.4-2.8,12.4-2.3,16.3-8.1c0.7-1,2.1-1.7,3.3-2.2
			c8.4-3.1,15.6-8.3,23.7-12.1c9.4-4.4,18.3-9.8,27.6-14.5c5.8-3,11.8-5.3,17.5-8.4c14-7.7,27.9-15.4,42.4-22
			c12.2-5.5,24.8-10.1,36.7-16.3c6.7-3.5,14.1-4.7,20.6-8.7c8.2-5,17.8-7,26.8-10.3c7.3-2.7,14.9-5.2,22.6-7.4
			c11.1-3.3,22-7.4,33.1-10.8c10.9-3.4,21.9-6.4,33-9.3c7.5-2,15-3,21.3,3.4c11.2,11.3,23.4,21.7,35,32.5c19,17.7,39,34,59,50.3
			c6.7,5.5,13.3,11.1,20.5,15.7c15.1,9.6,30.5,18.6,47,25.9c7.3,3.2,13.8,8,21.1,11.4c13.2,6.2,26.8,11.5,40.6,16.3
			c13.9,4.9,28.1,9,42.2,13.1c9.2,2.7,18.3,6.8,27.9,7.3c16.9,1,33.3,5.3,50.2,6.8c14.5,1.3,28.9,4.2,43.5,4.2
			c16.6,0.1,33.2,0.7,49.9-0.7c11.5-1,23.2-0.3,34.8-2.1c16-2.4,32.3-3.1,48.3-6c14.5-2.7,28.7-6.1,43-9.7
			c4.9-1.2,10.5-3.4,15.1-0.6c5,3,10.4,5.2,14.8,9.1c7.2,6.3,15.2,8.3,24.2,3.4c3.6-2,7.8-3,11.7-4.2c13.8-4.3,27.7-8.2,41.4-12.7
			c21.5-7,43.5-11.2,65.7-14.4c7.9-1.2,16-0.8,23.7-2.4c13.6-2.8,27.1-2.2,40.6-1.3c5.6,0.3,11.2,0.3,16.8,1.4
			c7.7,1.4,15.3,3.1,22.9,4.2c14.1,2,27.6,5.9,40.6,11.5c10.2,4.4,20.1,9.6,30.1,14.4c2.2,1,4.3,2.1,6.6,0.6c4-2.6,8.1-5.5,11.3-8.7
			c9.4-9.5,20.7-16.5,30.3-25.7c6.4-6.2,14.6-10.6,20.7-17c9.9-10.5,19.7-21.2,30.8-30.4c16.2-13.2,31.5-27.5,49.4-38.5
			c16.2-10,31.7-21.3,49.8-28.1c5.8-2.2,11.5-4.5,17.4-6.1c11.6-3.2,22.8-8.8,35.3-7.7c10.9,1,21.8-1,32.8-0.4
			c12.3,0.7,24.3,2.5,36.1,5.6c7.8,2.1,15.4,5,23.2,7.3c25.7,7.8,49.1,20.2,72.2,33.3c18.9,10.7,36.3,23.8,54.9,35.1
			c18.9,11.4,37.1,23.8,56.6,34.2c14.9,7.9,29.9,15.4,45,22.8c11,5.4,22.6,8.7,34.4,11.8c19.1,5.1,38.3,7.5,57.9,8.1
			c6.6,0.2,13.2-0.6,19.9-0.9c0,9,0,18,0,27c-6.8-0.5-13.3-2.5-20-3.4c-5.5-0.8-11-0.2-16.4-0.7c-16.7-1.7-33.3-1.1-49.9,2.1
			c-12.3,2.4-25,2.6-37.2,5.9c-19.5,5.2-39.3,9.5-58.1,17.1c-4.6,1.9-9.1,5-13.8,5.6c-8,0.9-14.9,4.4-22.1,7.2
			c-10.3,4.1-20.4,8.7-30.8,12.7c-6.6,2.6-13.6,4.2-20.2,6.8c-8.2,3.2-15.9,7.8-24.3,10.2c-14.4,4.1-28.2,9.8-42.6,13.8
			c-15.6,4.4-30.8,10.5-47,13c-11.5,1.8-22.8,4.9-34.3,5.4c-24.7,0.9-49.6,1.5-73.9-4c-16.3-3.8-32-9.8-47.4-16.5
			c-15.3-6.7-28.3-17.2-42.5-25.7c-13.6-8.1-26.1-18-38.2-28.4c-12.2-10.5-26.7-17.9-40.2-26.7c-6.1-4-12.2-7.9-18.1-12.1
			c-2.1-1.5-3.6-0.8-5.5,0.1c-4.2,2.1-7.3,5.7-11.3,8.1c-9.3,5.7-19,10.8-28.2,16.8c-6.2,4.1-12.8,7.8-19.7,10.4
			c-5.9,2.2-12.4,2.7-18.4,5.6c-3.1,1.5-6.3,3.3-10.1,3.9c-12.1,2-24.2,3.9-36.4,5c-16.3,1.5-32.6,1.4-48.7-0.7
			c-13.2-1.7-26.4-3.6-39.3-7.5c-8.2-2.5-16.8-4.2-24.7-7.5c-13.5-5.6-26.6-11.8-41-14.6c-1.3-0.2-2-1-2.6-2.1
			c-1-1.9-2.8-2.7-4.6-3.7c-4.7-2.6-9.7-4.3-14.4-6.8c-3.5-1.9-7.6-3.4-12-1.6c-6.6,2.7-13.1,5.6-19.6,8.4
			c-13.5,5.8-27.5,10.6-41.3,15.8c-3.7,1.4-7.4,2.9-11,4.5c-7.5,3.4-14.8,8-22.6,10.3c-10.9,3.2-21.7,6.1-31.9,11
			c-5.5,2.7-11.1,5.6-17,7c-13.8,3.3-27.5,7.2-41,11.7c-4.1,1.3-7.7,3.8-12,4.7c-17.3,3.2-34.6,5.8-52,8.2
			c-19.1,2.6-38.2,3.5-57.4,3c-18.7-0.5-37-4.3-55-7.8c-22.4-4.4-44.3-11.6-65.6-20c-21.8-8.7-44.2-15.4-66.6-22
			c-12.5-3.7-25.5-6.2-38.4-8.1c-19.5-2.9-39-1.1-58.5,1.3c-12.1,1.5-23.5,5.1-35.2,8.3c-10.5,2.8-20.2,7-29.7,12
			c-14.1,7.4-27.2,16.6-39.8,26.2c-7.1,5.4-15.1,9.5-20.7,16.9c-7.1,9.6-15.4,18.3-22.2,28.1c-8.1,11.7-15.4,24-20.6,37.4
			c-2.6,6.7-2.5,7.5,4.6,7.5c52.5,0,105,0,157.5,0C859.8,1077.9,1389.9,1077.9,1919.9,1077.9z"/>
		<path class="st5" d="M1919.9,898.9c-6.6,0.3-13.3,1.1-19.9,0.9c-19.6-0.6-38.9-3-57.9-8.1c-11.8-3.2-23.4-6.5-34.4-11.8
			c-15.1-7.4-30.1-14.9-45-22.8c-19.5-10.3-37.7-22.8-56.6-34.2c-18.6-11.2-36.1-24.4-54.9-35.1c-23.1-13.1-46.5-25.5-72.2-33.3
			c-7.7-2.3-15.3-5.3-23.2-7.3c-11.8-3.1-23.8-4.9-36.1-5.6c-11-0.7-21.9,1.4-32.8,0.4c-12.6-1.1-23.7,4.5-35.3,7.7
			c-5.9,1.6-11.6,4-17.4,6.1c-18.1,6.8-33.5,18.1-49.8,28.1c-17.9,11-33.3,25.3-49.4,38.5c-11.2,9.2-20.9,19.9-30.8,30.4
			c-6.1,6.4-14.3,10.8-20.7,17c-9.6,9.2-20.9,16.2-30.3,25.7c-3.2,3.3-7.3,6.1-11.3,8.7c-2.3,1.5-4.4,0.5-6.6-0.6
			c-10-4.9-19.9-10.1-30.1-14.4c-13-5.6-26.4-9.5-40.6-11.5c-7.7-1.1-15.3-2.8-22.9-4.2c-5.6-1-11.3-1-16.8-1.4
			c-13.5-0.8-27-1.4-40.6,1.3c-7.7,1.6-15.8,1.2-23.7,2.4c-22.2,3.2-44.3,7.4-65.7,14.4c-13.7,4.5-27.6,8.4-41.4,12.7
			c-4,1.2-8.1,2.3-11.7,4.2c-9.1,4.9-17,2.9-24.2-3.4c-4.5-3.9-9.9-6.1-14.8-9.1c-4.6-2.7-10.2-0.6-15.1,0.6
			c-14.3,3.5-28.5,7-43,9.7c-16,2.9-32.2,3.6-48.3,6c-11.6,1.7-23.2,1.1-34.8,2.1c-16.7,1.4-33.3,0.8-49.9,0.7
			c-14.6-0.1-29-3-43.5-4.2c-16.8-1.5-33.2-5.8-50.2-6.8c-9.6-0.5-18.7-4.6-27.9-7.3c-14.1-4.2-28.3-8.2-42.2-13.1
			c-13.8-4.8-27.3-10.2-40.6-16.3c-7.2-3.4-13.8-8.1-21.1-11.4c-16.4-7.3-31.9-16.3-47-25.9c-7.2-4.6-13.9-10.2-20.5-15.7
			c-20-16.4-40-32.7-59-50.3c-11.6-10.8-23.8-21.2-35-32.5c-6.3-6.4-13.8-5.3-21.3-3.4c-11,2.9-22.1,6-33,9.3
			c-11.1,3.4-22,7.5-33.1,10.8c-7.6,2.2-15.2,4.7-22.6,7.4c-8.9,3.3-18.6,5.3-26.8,10.3c-6.5,4-13.9,5.2-20.6,8.7
			c-11.8,6.2-24.5,10.7-36.7,16.3c-14.5,6.6-28.4,14.3-42.4,22c-5.7,3.1-11.8,5.4-17.5,8.4c-9.2,4.8-18.1,10.2-27.5,14.5
			c-8.1,3.7-15.3,9-23.7,12.1c-1.2,0.5-2.6,1.1-3.3,2.2c-4,5.8-10.9,5.3-16.3,8.1c0-80.7,0-161.3,0-242c9.2-0.8,18.5-1.3,27.7-2.6
			c9.4-1.2,19-1.2,28.4,0c4.8,0.6,9.4-0.3,14.2,0.2c19.6,2.2,39.2,3.3,58.5,8.1c20.6,5,40.4,11.8,60.2,19.2
			c16.1,5.9,30.5,15,46.1,21.9c4.2,1.8,7.6,5.3,11.4,8c11.8,8.3,24,16.1,35.5,24.8c10.7,8.1,20.7,17.2,30.9,25.9
			c3,2.6,5.9,3.5,10,2.7c20.3-3.9,40.7-8.1,61.2-11c8.8-1.2,17.9-1.1,26.8-2.3c25.5-3.3,51.2-3.1,76.7-1.6c19.8,1.2,39.7,1.3,59.4,5
			c20.2,3.8,40.4,7.5,60.3,12.8c24.7,6.5,49.1,14.3,72.3,25.1c15.6,7.3,30.7,15.5,45.6,24.1c19.7,11.3,38.3,24.4,57.2,36.9
			c23.9,15.8,46.8,32.9,70.2,49.5c11.1,7.9,22.7,15,34.1,22.4c2.2,1.5,4.4,2.9,6.6,4.5c3.1,2.2,6.7,4.1,10.2,2.9
			c11.3-3.8,23-6.3,34.2-10.5c12.9-4.9,26.2-8.6,39.1-13.3c9.3-3.4,18.4-7.6,27.5-11.6c12.3-5.3,24.5-10.6,36.5-16.5
			c16.1-7.9,31.7-16.5,47.5-25c10.9-5.9,21.4-12.5,32.1-18.6c9.5-5.4,18.7-11.4,27.7-17.5c17.1-11.5,34.5-22.4,50.7-35.2
			c9.6-7.6,19.7-14.5,29.3-22.2c6.4-5.2,13.1-10.2,19.5-15.4c14.9-12,29-25.1,44.2-36.7c5-3.8,8.9-9,13.9-12.8
			c13-9.8,24.9-20.9,38-30.5c9.2-6.7,18-14,26.9-21c2.6-1.6,5.3-0.6,8-0.1c1.3,1.6,1.8,3.8,3.8,5.1c4.9,3.3,9.6,7,14.3,10.6
			c10.4,7.7,20.6,15.6,31.6,22.4c9.2,5.6,18.8,10.4,28.5,15c5.9,2.9,11.3,7,17.5,9.3c19.7,7.4,39.8,13.4,60.7,16.9
			c19,3.1,38.1,5.5,57.4,5c10.5-0.3,21,0,31.5-0.1c1.5,0,3.1,0.2,4.5-0.2c17.2-4.1,35.1-4.5,52.3-8.9c8.4-2.1,17.6-1.3,25-6.9
			c3.5-0.3,6.6,0.6,9.1,3c-0.2,1.5-0.1,3,0.6,4.4c4.3,9.1,9,18,12.9,27.3c6.7,15.8,17,29.5,26.1,43.8c7.7,12.2,17.3,23.2,29.2,32.2
			c12.9,9.8,25.1,20.4,41.4,24.7c11.7,3,23.1,6.7,35.4,7.1c14.3,0.5,28.4,0.1,42.5-1.9c5.6-0.8,10.9-3,16.7-2.5
			C1919.9,840.3,1919.9,869.6,1919.9,898.9z"/>
		<path class="st6" d="M1919.9,1077.9c-530,0-1060.1,0-1590.1,0c-52.5,0-105,0-157.5,0c-7.1,0-7.2-0.7-4.6-7.5
			c5.2-13.4,12.5-25.7,20.6-37.4c6.8-9.8,15.1-18.5,22.2-28.1c5.6-7.4,13.6-11.5,20.7-16.9c12.6-9.7,25.7-18.8,39.8-26.2
			c9.4-5,19.2-9.2,29.7-12c11.7-3.2,23.1-6.8,35.2-8.3c19.5-2.3,39-4.2,58.5-1.3c12.9,1.9,25.9,4.4,38.4,8.1
			c22.4,6.6,44.8,13.3,66.6,22c21.3,8.5,43.2,15.7,65.6,20c18.1,3.5,36.3,7.3,55,7.8c19.3,0.5,38.3-0.3,57.4-3
			c17.4-2.4,34.8-4.9,52-8.2c4.4-0.8,8-3.3,12-4.7c13.5-4.4,27.1-8.4,41-11.7c5.9-1.4,11.5-4.4,17-7c10.2-5,21.1-7.9,31.9-11
			c7.9-2.3,15.1-6.9,22.6-10.3c3.6-1.7,7.3-3.1,11-4.5c13.8-5.2,27.8-10,41.3-15.8c6.5-2.8,13-5.7,19.6-8.4c4.4-1.8,8.4-0.2,12,1.6
			c4.7,2.5,9.8,4.2,14.4,6.8c1.8,1,3.6,1.8,4.6,3.7c0.6,1.1,1.3,1.8,2.6,2.1c14.4,2.7,27.6,9,41,14.6c7.9,3.3,16.5,5,24.7,7.5
			c12.8,3.9,26.1,5.8,39.3,7.5c16.2,2.1,32.4,2.2,48.7,0.7c12.2-1.2,24.3-3,36.4-5c3.8-0.6,7-2.4,10.1-3.9c6-2.9,12.5-3.3,18.4-5.6
			c6.9-2.6,13.5-6.3,19.7-10.4c9.2-6,18.8-11.1,28.2-16.8c3.9-2.4,7.1-6,11.3-8.1c1.8-0.9,3.3-1.6,5.5-0.1
			c5.9,4.2,12.1,8.1,18.1,12.1c13.4,8.8,28,16.2,40.2,26.7c12.1,10.4,24.6,20.3,38.2,28.4c14.2,8.5,27.2,19,42.5,25.7
			c15.3,6.7,31,12.8,47.4,16.5c24.3,5.6,49.2,5,73.9,4c11.5-0.4,22.9-3.6,34.3-5.4c16.2-2.5,31.3-8.6,47-13
			c14.4-4,28.2-9.7,42.6-13.8c8.4-2.4,16.1-7,24.3-10.2c6.6-2.6,13.6-4.2,20.2-6.8c10.3-4,20.5-8.6,30.8-12.7
			c7.2-2.9,14.1-6.3,22.1-7.2c4.8-0.5,9.2-3.7,13.8-5.6c18.8-7.6,38.6-11.9,58.1-17.1c12.3-3.3,24.9-3.5,37.2-5.9
			c16.5-3.2,33.2-3.9,49.9-2.1c5.4,0.6,10.9,0,16.4,0.7c6.7,0.9,13.3,2.9,20,3.4C1919.9,976.6,1919.9,1027.2,1919.9,1077.9z"/>
		<path class="st3" d="M1919.9,811c-5.7-0.5-11.1,1.7-16.7,2.5c-14.1,2-28.2,2.4-42.5,1.9c-12.4-0.4-23.7-4.1-35.4-7.1
			c-16.3-4.2-28.5-14.9-41.4-24.7c-11.9-9-21.5-20.1-29.2-32.2c-9.1-14.3-19.4-28-26.1-43.8c-3.9-9.3-8.6-18.2-12.9-27.3
			c-0.7-1.4-0.8-2.9-0.6-4.4c1.7,0.4,3.2,0.3,5.1-0.3c4.1-1.3,6.6-5.4,10.9-5.8c8.6-1,15.6-6.7,24.1-7.6c3.4-0.4,4-4,7.4-4.5
			c5.5-0.9,10.8-2.8,16.1-4.4c12.2-3.6,21-13.2,32.8-17.1c0.4-0.1,0.6-0.8,0.9-1.1c1.7-2,3.9-3,6.5-3.1c3.1-0.1,5.8-1.2,8-3.5
			c1-1,2.5-2.1,3.8-2.2c6.9-0.8,11.9-5.7,17.4-8.8c8.9-5.1,18.7-8.9,26.9-15.4c5.1-4,11.1-7,16.6-10.5c7.4-4.7,14.9-9.5,22.2-14.2
			c1.8-1.2,3.6-2.4,5.9-2.3C1919.9,653.7,1919.9,732.3,1919.9,811z"/>
		<path class="st7" d="M1919.9,575c-2.3-0.2-4.1,1.1-5.9,2.3c-7.4,4.8-14.8,9.5-22.2,14.2c-5.5,3.5-11.5,6.5-16.6,10.5
			c-8.2,6.5-18,10.3-26.9,15.4c-5.5,3.1-10.5,8-17.4,8.8c-1.3,0.2-2.8,1.2-3.8,2.2c-2.2,2.3-4.9,3.4-8,3.5c-2.7,0.1-4.8,1.1-6.5,3.1
			c-0.3,0.4-0.5,1-0.9,1.1c-11.9,3.9-20.6,13.5-32.8,17.1c-5.3,1.6-10.7,3.5-16.1,4.4c-3.3,0.5-4,4.2-7.4,4.5
			c-8.5,0.9-15.5,6.6-24.1,7.6c-4.3,0.5-6.8,4.5-10.9,5.8c-1.9,0.6-3.4,0.7-5.1,0.3c-2.6-2.5-5.7-3.3-9.1-3
			c-1.2-9.7-7.8-17.4-10.2-26.9c-1.8-7.1-7.6-13.2-11.7-19.8c-1.8-3-4-5.7-5.8-8.7c-12.2-19.7-28.7-35.3-48.3-47.3
			c-11.6-7.2-24.5-12.2-37.6-16.1c-14.8-4.5-30.2-5.8-45.6-7.1c-14.2-1.2-28.2,1.4-42.1,3.2c-6.3,0.8-13.5-0.1-18.4,5.9
			c-0.9,1.2-2.8,0.7-4.3,0.9c-5.5,0.7-11.9,0-16.3,2.7c-6.4,4-14.5,2.6-20.4,8.7c-3.6,3.8-10.9,3.2-16.1,7.1
			c-4.1,3-9.7,4.8-14.3,7.6c-4.8,3-10.2,4.6-14.8,7.6c-6.1,3.9-11.4,9-18.6,11c-1.7,0.4-2.7,1.3-2.6,3.1c-2.7-0.5-5.3-1.5-8,0.1
			c0.1-1.4-0.2-2.6-1.4-3.5c-12.2-8.8-23.7-18.5-34.6-28.8c-20-19-40.6-37.3-60.7-56.1c-7.2-6.8-14.9-13-22.3-19.4
			c-6.7-5.8-14.5-10.5-22.6-14.5c-6.6-3.2-12-8.2-18.5-11.6c-10.3-5.3-20.5-11-31.1-15.6c-8.7-3.8-17.3-8.8-26.9-10.4
			c-2.8-0.5-3.3-4.6-6.5-3.9c-3.6,0.8-6.8-0.3-10.2-1c-4.5-0.9-8.9-1.4-13.1-4.2c-2.6-1.7-6.8-2-10.1-1.6
			c-11.7,1.7-23.2-0.3-34.8-0.4c-4,0-7.4,1-11,3.5c-4.2,2.9-10,3-15.3,3.1c-1.9,0-4.1-0.2-5.2,0.9c-2.7,2.8-6.2,3.7-9.7,4.5
			c-5.6,1.3-10.2,4.5-15.4,6.6c-10.2,4.2-18.9,10.4-28.2,16.1c-11.5,7-22,15.2-33.3,22.5c-6.2,4-11.2,9.9-17.6,13.8
			c-9.5,5.7-16.3,14.4-25,21c-11.3,8.6-22.3,17.6-33.9,25.9c-7.5,5.3-14.8,10.9-22.7,15.6c-5.8,3.5-11.4,7.3-17.6,10.3
			c-6.8,3.3-13.1,7.5-20,10.5c-6.5,2.9-12.2,8-20.1,7.9c-2.5,0-3.9,3.3-6.6,4.1c-2.7,0.8-4.9,2.6-8.3,1.9c-2.8-0.6-4,4.2-7.6,4.6
			c-2.2,0.2-4.4,1.2-6.8,1.1c-3.8-0.3-7,0.8-10,3.4c-2.9,2.5-7.1,2.8-10.7,2.8c-3,0-4.7,1.1-7,2.5c-4.7,2.8-10,4.3-15.7,4.2
			c-3,0-5.7-0.1-8.1,2.5c-2.2,2.4-6,1.7-9,2.2c-4.7,0.9-9.6,0.9-14.3,1.2c-3.7,0.2-7.7-0.8-10.4,3c-0.8,1-2.4,1-3.8,1
			c-9.8-0.2-19.6,1.8-29.3,1.6c-13.6-0.3-27.1,2.2-40.7,1.5c-17.7-1-35.4-2-53.1-3c-0.5,0-1.2,0.1-1.5-0.2c-4.9-6-11.8-2.4-17.6-3.8
			c-6.2-1.6-13.2-0.3-18.7-5.1c-1.5-1.3-4.2-2-6.1-1.6c-3.6,0.8-6.7-0.3-10.1-0.9c-3.6-0.6-6.7-1.3-9.2-4c-0.5-0.6-1.6-1.1-2.2-1
			c-6.5,1.5-11.5-1.4-16.3-5.3c-0.8-0.7-2.2-1-3.3-1c-6.2-0.2-11.8-1.3-17.5-4.5c-6.5-3.7-13.9-5.9-20.8-8.8
			c-10.5-4.4-20.5-9.9-30.5-15.1c-11.8-6.1-22.6-13.9-34-20.7c-3.3-2-5.8-4.9-8.9-7.1c-10.5-7.3-20.2-15.8-30.9-22.9
			c-9.4-6.3-17.9-13.5-26.7-20.5c-13.5-10.9-27.5-21.1-42-30.7c-2.7-1.8-4.8-4.7-7.5-6.5c-10.3-7-20.8-13.6-31.4-20
			c-12.3-7.5-25.6-13-37.9-20.2c-8.3-4.9-18.7-6.1-26.9-11c-8.8-5.2-19.4-4-27.8-9.8c-0.9-0.6-2.2-0.9-3.3-0.9
			c-12.8-0.7-25.5-1.5-38.3-2c-13.7-0.5-27.3,1-41,2.8c-10.4,1.3-20.2,4.3-29.4,9.4c-2.7,1.5-5.9,2-9,2.8c-4.8,1.1-8,5.4-13,6
			c0-2.3,0-4.7,0-7c8.4-3.1,16.9-6,25.1-9.5c13.5-5.8,27.8-8,42-10c18.5-2.6,37.2-1.5,55.6,1.8c25.3,4.6,49.3,13.1,72.5,24.4
			c21.2,10.3,41.2,22.3,60.4,35.8c17.6,12.4,34.9,25.3,51.9,38.7c25.8,20.4,52,40.3,79.5,58.3c20.9,13.7,43.1,25,66.2,34.6
			c31.3,13,63.9,21.7,97.2,27.5c13.7,2.4,27.6,3.7,41.5,4.7c14.7,1.1,29.3,0.9,43.9,0.8c17.4-0.2,34.7-2.7,52-4.4
			c14.6-1.5,28.7-5.3,43.1-7.8c10.2-1.8,20.2-5.6,30.1-8.8c18.8-6,37.2-13.2,55.1-21.8c17.8-8.6,35.1-17.9,51.5-29.1
			c11.2-7.7,22-15.9,33-24c12.4-9.1,23.6-19.7,35.7-29c10.1-7.8,20.2-15.6,30.6-23c10.2-7.4,20.3-14.9,31.2-21.4
			c21.3-12.9,44-23,68.7-27c16.2-2.6,32.8-2,49.3-1.1c11.3,0.6,22,3.5,32.7,6.2c12.8,3.3,25,8.8,37.2,14.3
			c20.7,9.3,39.5,21.9,58.2,34.6c16.8,11.4,32.1,24.7,47.1,38.3c17.1,15.6,34,31.3,50.7,47.3c9.7,9.3,20.4,17.6,29.9,27.1
			c2.2,2.2,4.5,1.7,6.8,0.3c8.8-5.4,17.4-11,26.4-16.1c10.2-5.8,20.4-11.6,31.4-16c5.6-2.2,10.7-5.3,16.5-7.2
			c12.3-4,24.5-8.2,37.2-11c22.4-4.9,45.2-5.6,68-4.3c15.2,0.9,30,4.6,44.6,9.7c14,4.9,26.8,11.6,38.9,19.7
			c8.5,5.8,15.3,13.8,22.7,21c13,12.8,22.7,28.1,31.7,43.8c5.2,9.1,10.5,18.1,14.6,27.7c1.3,3.1,3.3,4,6.8,3
			c13.6-3.9,26.8-8.9,40-13.9c18.5-7,36.2-15.6,53.9-24.4c15.2-7.6,29.9-15.9,44.7-24.1c18.9-10.5,36.7-22.7,55.1-33.8
			c3.1-1.9,5.5-4.9,9-6.2C1919.9,569.7,1919.9,572.3,1919.9,575z"/>
		<path class="st3" d="M1378.9,604.8c-0.1-1.8,0.9-2.7,2.6-3.1c7.2-1.9,12.6-7,18.6-11c4.6-3,10.1-4.6,14.8-7.6
			c4.6-2.8,10.3-4.6,14.3-7.6c5.2-3.9,12.5-3.3,16.1-7.1c5.9-6.1,14-4.8,20.4-8.7c4.3-2.7,10.8-2,16.3-2.7c1.5-0.2,3.4,0.3,4.3-0.9
			c4.9-6,12.1-5.1,18.4-5.9c13.9-1.8,27.9-4.4,42.1-3.2c15.3,1.3,30.7,2.6,45.6,7.1c13.1,3.9,26,9,37.6,16.1
			c19.6,12,36,27.6,48.3,47.3c1.8,3,4,5.7,5.8,8.7c4.1,6.5,9.9,12.7,11.7,19.8c2.4,9.5,9,17.2,10.2,26.9c-7.4,5.6-16.6,4.8-25,6.9
			c-17.2,4.4-35.1,4.8-52.3,8.9c-1.4,0.3-3,0.2-4.5,0.2c-10.5,0-21-0.2-31.5,0.1c-19.3,0.5-38.4-1.8-57.4-5
			c-20.9-3.5-41-9.5-60.7-16.9c-6.1-2.3-11.5-6.4-17.5-9.3c-9.7-4.7-19.3-9.4-28.5-15c-11.1-6.8-21.3-14.7-31.6-22.4
			c-4.8-3.5-9.4-7.2-14.3-10.6C1380.7,608.5,1380.3,606.4,1378.9,604.8z"/>
	</g>
</g>
</svg>
