<svg version="1.0" xmlns="http://www.w3.org/2000/svg" xmlns:xlink="http://www.w3.org/1999/xlink" aria-hidden="true" 
role="img" class="iconify iconify--logos" width="37.07" height="36" preserveAspectRatio="xMidYMid meet" >
<style type="text/css">
	.st0{display:none;}
	.st1{display:inline;fill:#41B883;}
	.st2{display:inline;fill:#35495E;}
	.st3{fill:url(#SVGID_1_);}
	.st4{fill:#FFFFFF;}
	.st5{fill:url(#SVGID_00000168100409485463875140000005273187935940187813_);}
	.st6{fill:url(#SVGID_00000158028018935920887830000015744196402765809839_);}
</style>
<g id="Layer_1" class="st0">
	<path class="st1" d="M29.66,3.66h7.41L18.53,35.64L0,3.66h14.18l4.36,7.41l4.26-7.41H29.66z"/>
	<path class="st1" d="M0,3.66l18.53,31.97L37.07,3.66h-7.41L18.53,22.85L7.32,3.66H0z"/>
	<path class="st2" d="M7.32,3.66l11.21,19.28L29.66,3.66H22.8l-4.26,7.41l-4.36-7.41H7.32z"/>
</g>
<g id="Layer_2">
	<g>
		<g>
			<g>
				<g>
					
						<linearGradient id="SVGID_1_" gradientUnits="userSpaceOnUse" x1="1677.9565" y1="-1653.3865" x2="1728.6176" y2="-1653.3865" gradientTransform="matrix(0.5689 0 0 -0.5689 -950.465 -920.9021)">
						<stop  offset="0" style="stop-color:#2C549D"/>
						<stop  offset="1" style="stop-color:#17244C"/>
					</linearGradient>
					<path class="st3" d="M32.95,24.26c0,0.5,0,1,0,1.5c-0.05,0.09-0.11,0.21-0.18,0.29c-1.12,1.23-2.25,2.48-3.39,3.69
						c-1.41,1.46-2.94,2.82-4.65,3.92c-1.23,0.8-2.53,1.44-4.01,1.71c-0.27,0.05-0.53,0.12-0.8,0.2c-0.91,0-1.82,0-2.75,0
						c-0.12-0.05-0.25-0.11-0.37-0.12c-1.34-0.18-2.53-0.68-3.69-1.34c-1.69-0.98-3.21-2.19-4.58-3.57
						c-1.44-1.46-2.82-2.98-4.21-4.49c-0.09-0.09-0.16-0.21-0.16-0.34c-0.02-0.48-0.05-0.98,0.02-1.46
						c0.14-0.89,0.32-1.77,0.55-2.64c0.73-2.76,1.68-5.49,2.6-8.18c0.53-1.59,1.16-3.14,1.55-4.78c0.25-1.03,0.53-2.09,0.95-3.08
						c0.3-0.68,0.71-1.27,1.39-1.62c0.09-0.05,0.2-0.07,0.29-0.07c4.69-0.02,9.36-0.02,14.03,0c0.09,0,0.18,0.02,0.25,0.05
						c0.5,0.27,0.93,0.62,1.18,1.12c0.29,0.62,0.57,1.28,0.77,1.94c0.32,1.02,0.53,2.07,0.86,3.08c0.77,2.34,1.6,4.67,2.39,7.01
						c0.66,1.96,1.27,3.92,1.71,5.96C32.79,23.44,32.86,23.85,32.95,24.26z M12.73,11.84c0.02,0.04,0.02,0.07,0.04,0.11
						c-0.05,0.05-0.11,0.11-0.14,0.16c-0.61,0.59-1.21,1.18-1.78,1.78c-0.3,0.3-0.3,0.55,0,0.84c0.29,0.27,0.59,0.52,0.91,0.75
						c0.32,0.23,0.68,0.21,1-0.04c0.09-0.07,0.16-0.14,0.27-0.23c0.02,0.23,0.04,0.45,0.05,0.66c0.07,1.28,0.16,2.57,0.23,3.85
						c0.09,1.62,0.2,3.23,0.29,4.85c0.05,0.95,0.05,1.91,0.37,2.84c0.25,0.7,0.45,1.41,0.86,2.03c0.07,0.09,0.18,0.16,0.29,0.23
						c0.05-0.11,0.14-0.21,0.16-0.32c0.09-0.73,0.18-1.46,0.21-2.19c0.12-1.66,0.21-3.3,0.34-4.94c0.07-1.16,0.14-2.34,0.23-3.49
						c0.11-1.39,0.2-2.8,0.34-4.19c0.07-0.8,0.2-1.6,0.32-2.39c0.09-0.52,0.41-0.68,0.91-0.53c0.25,0.07,0.48,0.18,0.71,0.3
						c0.16,0.07,0.29,0.07,0.45,0c0.23-0.11,0.46-0.21,0.71-0.3c0.5-0.14,0.82,0.02,0.91,0.53c0.14,0.86,0.27,1.71,0.34,2.57
						c0.14,1.39,0.23,2.8,0.34,4.19c0.09,1.21,0.16,2.42,0.23,3.64c0.11,1.6,0.21,3.21,0.34,4.81c0.05,0.68,0.14,1.36,0.21,2.05
						c0.02,0.09,0.09,0.18,0.14,0.29c0.09-0.07,0.2-0.11,0.27-0.2c0.09-0.11,0.16-0.25,0.21-0.39c0.14-0.32,0.3-0.64,0.41-0.98
						c0.2-0.62,0.45-1.27,0.52-1.93c0.16-1.71,0.21-3.44,0.32-5.17c0.11-1.77,0.21-3.53,0.3-5.28c0.02-0.16,0.04-0.32,0.05-0.5
						c0.11,0.09,0.2,0.18,0.3,0.27c0.32,0.23,0.66,0.23,0.98,0c0.29-0.21,0.55-0.43,0.82-0.68c0.37-0.34,0.39-0.61,0.02-0.96
						c-0.59-0.59-1.18-1.18-1.77-1.75c-0.05-0.05-0.07-0.11-0.16-0.21c0.18,0,0.3-0.04,0.41,0.02c0.43,0.12,0.86,0.25,1.28,0.41
						c0.14,0.05,0.21,0.02,0.32-0.07c0.2-0.21,0.18-0.46-0.05-0.75c-0.18-0.23-0.39-0.45-0.53-0.7c-0.21-0.37-0.52-0.57-0.95-0.64
						c-0.37-0.07-0.75-0.14-1.11-0.21c-0.14-0.04-0.25-0.14-0.37-0.2c0.09-0.07,0.16-0.09,0.23-0.11c0.53-0.09,1.07-0.2,1.6-0.3
						c0.18-0.04,0.23-0.11,0.14-0.29c-0.05-0.09-0.11-0.18-0.18-0.25c-0.18-0.18-0.34-0.34-0.52-0.52
						c-1.27-1.37-2.78-1.93-4.62-1.46c-0.14,0.04-0.27,0.09-0.39,0.12c0,0.04,0.02,0.05,0.02,0.07c0.14,0.02,0.27,0.05,0.39,0.07
						c0.32,0.05,0.64,0.11,0.96,0.18c0.07-0.02,0.2,0.02,0.11,0.16c-0.2,0.32-0.37,0.66-0.59,0.96c-0.2,0.27-0.48,0.43-0.8,0.48
						c-0.62,0.09-1.25,0.14-1.89,0.05c-0.52-0.07-0.98-0.2-1.28-0.66c-0.18-0.23-0.3-0.48-0.45-0.73c-0.11-0.21-0.09-0.27,0.14-0.32
						c0.3-0.07,0.62-0.09,0.93-0.14c0.12-0.02,0.27-0.05,0.37-0.09c-0.05-0.07-0.09-0.11-0.14-0.12c-1.09-0.3-2.18-0.32-3.25,0.18
						c-0.91,0.43-1.57,1.16-2.25,1.87c-0.02,0.02-0.04,0.05-0.07,0.11c-0.09,0.18-0.05,0.25,0.14,0.29
						c0.27,0.05,0.52,0.07,0.78,0.12c0.34,0.05,0.68,0.12,1.02,0.2c0.02,0.02,0.02,0.05,0.02,0.07c-0.12,0.07-0.23,0.16-0.37,0.2
						c-0.3,0.07-0.61,0.14-0.89,0.18c-0.41,0.07-0.82,0.16-1.07,0.55c-0.16,0.27-0.39,0.52-0.57,0.78c-0.07,0.11-0.16,0.23-0.2,0.36
						c-0.05,0.18,0.04,0.34,0.16,0.48c0.12,0.12,0.23,0.04,0.36-0.02c0.32-0.11,0.64-0.23,0.96-0.3
						C12.33,11.85,12.55,11.85,12.73,11.84z"/>
					<path class="st4" d="M12.73,11.84c-0.2,0.02-0.39,0.02-0.57,0.07c-0.34,0.09-0.66,0.21-0.98,0.32c-0.12,0.04-0.23,0.12-0.36,0
						c-0.12-0.12-0.21-0.29-0.16-0.48c0.04-0.12,0.12-0.23,0.2-0.34c0.2-0.27,0.41-0.52,0.59-0.8c0.25-0.39,0.64-0.48,1.07-0.55
						c0.3-0.05,0.61-0.11,0.89-0.18c0.12-0.04,0.25-0.12,0.37-0.2c-0.02-0.02-0.02-0.04-0.02-0.05c-0.34-0.07-0.7-0.16-1.03-0.21
						c-0.27-0.05-0.52-0.09-0.78-0.12C11.76,9.25,11.73,9.16,11.82,9c0.02-0.04,0.04-0.07,0.07-0.11c0.66-0.71,1.34-1.44,2.25-1.87
						c1.07-0.5,2.14-0.48,3.26-0.18c0.05,0.02,0.09,0.04,0.14,0.12C17.38,7,17.25,7.04,17.15,7.07c-0.32,0.04-0.62,0.07-0.93,0.14
						c-0.23,0.04-0.27,0.11-0.16,0.32c0.14,0.25,0.27,0.5,0.43,0.73c0.3,0.45,0.77,0.59,1.28,0.66c0.64,0.09,1.27,0.04,1.89-0.05
						c0.34-0.05,0.62-0.21,0.8-0.48c0.21-0.3,0.41-0.64,0.59-0.96c0.09-0.14-0.04-0.18-0.14-0.2c-0.32-0.07-0.64-0.11-0.96-0.18
						C19.8,7.04,19.68,7,19.55,6.99c0-0.04-0.02-0.05-0.02-0.07c0.12-0.04,0.25-0.09,0.39-0.12c1.84-0.45,3.35,0.09,4.62,1.46
						c0.16,0.18,0.34,0.34,0.52,0.52c0.07,0.07,0.14,0.16,0.18,0.25c0.09,0.16,0.05,0.25-0.14,0.29c-0.53,0.09-1.07,0.2-1.6,0.3
						c-0.07,0.02-0.14,0.04-0.23,0.11c0.12,0.07,0.23,0.18,0.37,0.2c0.37,0.09,0.73,0.16,1.11,0.21c0.41,0.07,0.73,0.27,0.95,0.64
						c0.14,0.25,0.34,0.46,0.53,0.7c0.21,0.29,0.25,0.53,0.05,0.75c-0.09,0.09-0.18,0.12-0.32,0.07c-0.43-0.14-0.86-0.29-1.28-0.41
						c-0.11-0.04-0.23-0.02-0.41-0.02c0.09,0.11,0.11,0.18,0.16,0.21c0.61,0.59,1.19,1.18,1.78,1.75c0.37,0.37,0.36,0.61-0.02,0.96
						c-0.27,0.25-0.53,0.46-0.82,0.68c-0.3,0.23-0.66,0.23-0.98,0c-0.09-0.07-0.18-0.16-0.3-0.27c-0.02,0.18-0.04,0.34-0.05,0.5
						c-0.11,1.77-0.21,3.53-0.3,5.28c-0.09,1.73-0.16,3.46-0.32,5.17c-0.05,0.64-0.32,1.28-0.52,1.93
						c-0.11,0.34-0.27,0.66-0.41,0.98c-0.05,0.14-0.14,0.27-0.21,0.39c-0.07,0.09-0.18,0.14-0.27,0.2
						c-0.05-0.09-0.14-0.18-0.14-0.29c-0.09-0.68-0.18-1.36-0.21-2.05c-0.12-1.6-0.21-3.21-0.34-4.81
						c-0.09-1.21-0.14-2.42-0.23-3.64c-0.09-1.39-0.2-2.8-0.34-4.19c-0.09-0.86-0.2-1.71-0.34-2.57c-0.07-0.48-0.41-0.66-0.89-0.5
						c-0.25,0.07-0.48,0.18-0.71,0.3c-0.16,0.07-0.29,0.07-0.45,0c-0.23-0.12-0.46-0.23-0.7-0.3c-0.5-0.14-0.82,0.02-0.91,0.53
						c-0.14,0.78-0.25,1.59-0.34,2.39c-0.12,1.39-0.23,2.78-0.34,4.17c-0.09,1.16-0.14,2.34-0.23,3.49
						c-0.11,1.66-0.21,3.3-0.34,4.94c-0.05,0.73-0.14,1.46-0.21,2.19c-0.02,0.11-0.11,0.21-0.16,0.32
						c-0.09-0.07-0.21-0.14-0.29-0.23c-0.41-0.62-0.61-1.34-0.86-2.03c-0.34-0.91-0.32-1.89-0.37-2.84
						c-0.09-1.62-0.2-3.23-0.29-4.85c-0.07-1.28-0.16-2.57-0.23-3.85c0-0.21-0.02-0.43-0.05-0.68c-0.09,0.09-0.18,0.18-0.27,0.23
						c-0.32,0.27-0.66,0.29-0.98,0.04c-0.3-0.23-0.62-0.48-0.91-0.75c-0.3-0.29-0.3-0.53-0.02-0.84c0.59-0.61,1.19-1.19,1.78-1.78
						c0.05-0.05,0.11-0.11,0.14-0.16C12.74,11.89,12.74,11.87,12.73,11.84z"/>
					
						<linearGradient id="SVGID_00000106128160962971673150000001008593698926700199_" gradientUnits="userSpaceOnUse" x1="1695.4578" y1="-1621.0925" x2="1711.1248" y2="-1621.0925" gradientTransform="matrix(0.5689 0 0 -0.5689 -950.465 -920.9021)">
						<stop  offset="0" style="stop-color:#2C549D"/>
						<stop  offset="1" style="stop-color:#17244C"/>
					</linearGradient>
					<path style="fill:url(#SVGID_00000106128160962971673150000001008593698926700199_);" d="M22.98,2.24c-2.96,0-5.92,0-8.88,0
						c-0.02-0.02-0.02-0.05-0.02-0.05c0.29-0.12,0.57-0.27,0.86-0.37c0.3-0.11,0.62-0.18,0.93-0.27c0.39-0.11,0.73-0.3,1.03-0.59
						c0.37-0.34,0.77-0.57,1.3-0.52c0.25,0.02,0.5,0.02,0.75,0c0.48-0.05,0.86,0.14,1.18,0.45c0.39,0.39,0.87,0.61,1.39,0.75
						c0.32,0.09,0.62,0.18,0.95,0.29c0.2,0.07,0.37,0.18,0.55,0.27C23,2.21,22.98,2.22,22.98,2.24z"/>
					
						<linearGradient id="SVGID_00000075148534674871202300000014805382813037899442_" gradientUnits="userSpaceOnUse" x1="1689.9531" y1="-1624.1405" x2="1716.4412" y2="-1624.1405" gradientTransform="matrix(0.5689 0 0 -0.5689 -950.465 -920.9021)">
						<stop  offset="0" style="stop-color:#2C549D"/>
						<stop  offset="1" style="stop-color:#17244C"/>
					</linearGradient>
					<path style="fill:url(#SVGID_00000075148534674871202300000014805382813037899442_);" d="M18.47,3.63c-2.32,0-4.62,0-6.94,0
						c-0.2,0-0.41,0.04-0.5-0.18c-0.11-0.27-0.12-0.55,0.04-0.78c0.07-0.11,0.29-0.16,0.43-0.16c0.82-0.02,1.62-0.02,2.44-0.02
						c3.82,0,7.63,0,11.46,0.02c0.2,0,0.41-0.04,0.52,0.18c0.12,0.25,0.14,0.53-0.02,0.78c-0.05,0.09-0.25,0.16-0.39,0.16
						c-0.37,0.02-0.75,0.02-1.11,0.02C22.43,3.63,20.45,3.63,18.47,3.63L18.47,3.63z M18.5,2.69c-2.32,0-4.62,0-6.94,0
						c-0.07,0-0.14-0.02-0.21,0.02c-0.05,0-0.14,0.05-0.14,0.09c-0.02,0.18-0.04,0.37,0.02,0.53c0.02,0.05,0.23,0.09,0.34,0.09
						c4.62,0.02,9.24,0.02,13.85,0.02c0.07,0,0.14,0.02,0.2-0.02c0.05,0,0.14-0.04,0.14-0.05c0.02-0.18,0.05-0.37,0.02-0.55
						c-0.02-0.05-0.2-0.09-0.3-0.09C23.12,2.67,20.8,2.69,18.5,2.69z"/>
					<path class="st4" d="M18.5,2.69c2.32,0,4.62,0,6.94,0.02c0.11,0,0.3,0.05,0.3,0.09c0.04,0.18,0.02,0.37-0.02,0.55
						c0,0.04-0.09,0.05-0.14,0.07s-0.12,0.02-0.2,0.02c-4.62,0-9.24,0-13.85-0.02c-0.11,0-0.32-0.04-0.34-0.09
						c-0.05-0.18-0.04-0.37-0.02-0.53c0-0.04,0.09-0.09,0.14-0.09c0.09-0.04,0.16-0.04,0.23-0.04C13.88,2.69,16.18,2.69,18.5,2.69z"
						/>
				</g>
			</g>
		</g>
	</g>
</g>
</svg>
