<?xml version="1.0" encoding="utf-8"?>
<!-- Generator: Adobe Illustrator 25.4.1, SVG Export Plug-In . SVG Version: 6.00 Build 0)  -->
<svg version="1.1" id="Layer_1" xmlns="http://www.w3.org/2000/svg" xmlns:xlink="http://www.w3.org/1999/xlink" x="0px" y="0px" width="128" height="128" preserveAspectRatio="xMidYMid meet"
	 viewBox="0 0 20 20" style="enable-background:new 0 0 20 20;" >
<style type="text/css">
	.st0{fill:#A7A7A7;}
	.st1{fill:#606060;}
	.st2{fill:#FFFFFF;}
	.st3{fill:#616161;}
</style>
<g id="PFP.psd_00000149345793293344297180000014247265354679868843_">
	<g>
		<path class="st0" d="M9.73,1.55c0.18,0,0.36,0,0.53,0c0.01,0.01,0.03,0,0.04,0c0.53-0.01,1.06,0.06,1.58,0.18
			c0.53,0.12,1.04,0.29,1.54,0.51c0.39,0.17,0.76,0.37,1.12,0.6c0.35,0.23,0.69,0.48,1.01,0.75c0.21,0.18,0.41,0.38,0.61,0.59
			c0.26,0.28,0.51,0.58,0.73,0.89c0.19,0.27,0.37,0.55,0.53,0.84c0.18,0.33,0.34,0.68,0.48,1.03c0.23,0.59,0.39,1.2,0.48,1.82
			c0.02,0.17,0.05,0.33,0.05,0.5c0,0.12,0.01,0.24,0.01,0.36c0,0.17,0.01,0.34,0,0.52c0,0.22,0,0.43-0.02,0.65
			c-0.02,0.3-0.07,0.6-0.13,0.89c-0.12,0.6-0.31,1.18-0.55,1.73c-0.3,0.69-0.69,1.32-1.17,1.9c-0.13,0.16-0.27,0.32-0.41,0.47
			c-0.46,0.5-0.98,0.93-1.55,1.3c-0.54,0.35-1.11,0.64-1.72,0.86c-0.52,0.19-1.05,0.33-1.59,0.41c-0.22,0.03-0.45,0.06-0.68,0.07
			c-0.29,0.01-0.58,0.01-0.87,0.01c-0.19,0-0.38,0-0.57-0.02c-0.3-0.03-0.6-0.07-0.89-0.13c-0.6-0.12-1.18-0.31-1.73-0.55
			c-0.69-0.3-1.32-0.69-1.9-1.17c-0.16-0.13-0.32-0.27-0.47-0.41c-0.49-0.46-0.92-0.98-1.29-1.54c-0.35-0.54-0.64-1.12-0.86-1.72
			c-0.19-0.52-0.33-1.05-0.41-1.59c-0.03-0.22-0.06-0.44-0.06-0.67c0-0.12-0.01-0.24-0.01-0.35c0-0.01,0-0.01,0-0.02
			c0-0.18,0-0.36,0-0.53c0.01-0.01,0-0.03,0-0.05c0-0.19,0-0.39,0.02-0.58c0.02-0.27,0.07-0.53,0.12-0.8C1.81,7.7,2,7.12,2.25,6.56
			c0.28-0.63,0.63-1.22,1.06-1.77c0.16-0.21,0.33-0.41,0.52-0.6c0.41-0.44,0.86-0.83,1.36-1.17C5.45,2.83,5.74,2.66,6.04,2.5
			c0.63-0.33,1.29-0.58,1.99-0.75c0.34-0.08,0.68-0.14,1.03-0.18C9.2,1.56,9.34,1.56,9.49,1.55C9.57,1.55,9.65,1.56,9.73,1.55z"/>
		<path class="st1" d="M9.97,4.2c0.94,0,1.88,0,2.83,0c0.03,0,0.07,0,0.1,0c0.03,0,0.05,0.01,0.07,0.02c0.23,0.12,0.4,0.3,0.52,0.53
			c0.13,0.25,0.22,0.52,0.3,0.78c0.1,0.35,0.18,0.71,0.28,1.06c0.09,0.31,0.2,0.62,0.31,0.93c0.27,0.77,0.54,1.53,0.79,2.3
			c0.16,0.49,0.31,0.97,0.44,1.47c0.11,0.42,0.22,0.84,0.28,1.26c0,0.03,0.01,0.06,0.01,0.1c0,0.16,0,0.32,0,0.49
			c0,0.07-0.02,0.13-0.07,0.18c-0.36,0.38-0.69,0.78-1.05,1.16c-0.32,0.34-0.64,0.66-0.99,0.97c-0.37,0.34-0.76,0.65-1.18,0.93
			c-0.41,0.27-0.84,0.5-1.31,0.65c-0.19,0.06-0.38,0.11-0.58,0.13c-0.06,0.01-0.12,0.02-0.18,0.05c-0.02,0.01-0.04,0.01-0.06,0.01
			c-0.33,0-0.67,0-1,0c-0.02,0-0.05,0-0.07-0.01c-0.05-0.02-0.1-0.03-0.15-0.04c-0.47-0.06-0.9-0.22-1.31-0.44
			c-0.53-0.28-1.01-0.63-1.47-1.01c-0.39-0.33-0.76-0.69-1.12-1.06c-0.31-0.33-0.61-0.66-0.91-1c-0.1-0.11-0.19-0.21-0.29-0.32
			c-0.06-0.06-0.09-0.13-0.08-0.21c0-0.11,0.01-0.22,0-0.33c-0.01-0.22,0.04-0.43,0.08-0.64c0.14-0.65,0.33-1.29,0.53-1.93
			c0.23-0.72,0.47-1.44,0.72-2.15C5.57,7.6,5.74,7.15,5.88,6.68c0.08-0.25,0.13-0.51,0.2-0.77c0.09-0.35,0.19-0.7,0.34-1.03
			C6.49,4.74,6.56,4.6,6.66,4.49c0.1-0.12,0.23-0.21,0.37-0.28c0.02-0.01,0.03-0.01,0.05-0.01c0.05,0,0.1,0,0.15,0
			C8.14,4.2,9.06,4.2,9.97,4.2z"/>
		<path class="st2" d="M9.97,4.1c-0.87,0-1.74,0-2.62,0c-0.09,0-0.18,0-0.27,0C6.95,4.11,6.87,4.04,6.88,3.9c0-0.03,0-0.06,0-0.09
			c0-0.11,0.06-0.17,0.17-0.17c0.29,0,0.58,0,0.87,0c0.93,0,1.86,0,2.8,0c0.71,0,1.41,0,2.12,0c0.02,0,0.05,0,0.07,0
			c0.06,0.01,0.12,0.03,0.14,0.1c0.03,0.09,0.03,0.18,0,0.27c-0.02,0.07-0.08,0.1-0.15,0.1c-0.11,0-0.21,0-0.32,0
			C11.7,4.1,10.83,4.1,9.97,4.1C9.97,4.1,9.97,4.1,9.97,4.1z"/>
		<path class="st3" d="M10.01,3.53c-0.57,0-1.14,0-1.71,0c-0.04,0-0.08,0-0.12,0c-0.01,0-0.02,0.01-0.03-0.01
			c0-0.01,0.01-0.02,0.02-0.02C8.25,3.45,8.35,3.4,8.45,3.36c0.14-0.05,0.29-0.08,0.43-0.12c0.16-0.05,0.31-0.13,0.43-0.25
			c0.09-0.09,0.21-0.16,0.33-0.2c0.02-0.01,0.03-0.01,0.05-0.01c0.2,0,0.39,0,0.59,0c0.06,0,0.1,0.03,0.15,0.05
			c0.08,0.03,0.15,0.08,0.21,0.14c0.16,0.17,0.37,0.25,0.59,0.31c0.16,0.04,0.32,0.08,0.47,0.16c0.04,0.02,0.08,0.05,0.12,0.07
			c0.01,0,0.02,0.01,0.01,0.02c0,0.01-0.02,0.01-0.02,0.01c-0.21-0.01-0.41,0-0.62,0C10.8,3.53,10.4,3.53,10.01,3.53z"/>
		<path class="st2" d="M11.11,5.33c0.4,0,0.77,0.16,1.1,0.42c0.18,0.14,0.32,0.31,0.48,0.47c0.03,0.03,0.05,0.06,0.07,0.1
			c0.03,0.06,0.01,0.09-0.05,0.1c-0.12,0.01-0.23,0.03-0.35,0.05c-0.12,0.02-0.25,0.05-0.37,0.08c-0.01,0-0.04,0-0.04,0.02
			c0,0.02,0.01,0.03,0.02,0.04c0.04,0.03,0.08,0.05,0.13,0.07c0.14,0.05,0.29,0.06,0.44,0.09c0.17,0.03,0.31,0.1,0.39,0.27
			c0.05,0.09,0.11,0.17,0.18,0.24c0.05,0.05,0.09,0.1,0.1,0.16c0.02,0.08-0.02,0.19-0.1,0.22c-0.02,0.01-0.03,0-0.05-0.01
			c-0.15-0.06-0.29-0.12-0.45-0.15c-0.06-0.01-0.12-0.03-0.19-0.03c-0.03,0-0.06,0-0.07,0.03c-0.01,0.03,0.01,0.05,0.03,0.07
			c0.25,0.23,0.48,0.48,0.72,0.71c0.02,0.02,0.04,0.04,0.06,0.07c0.08,0.1,0.08,0.18,0,0.28c-0.04,0.05-0.09,0.09-0.14,0.13
			c-0.08,0.06-0.15,0.12-0.23,0.18c-0.16,0.13-0.33,0.12-0.48-0.02c0,0-0.01-0.01-0.01-0.01c-0.02-0.01-0.03-0.05-0.06-0.04
			c-0.02,0.01-0.01,0.05-0.01,0.07c-0.04,0.72-0.09,1.44-0.13,2.16c-0.04,0.71-0.09,1.42-0.12,2.13c-0.01,0.22-0.07,0.43-0.13,0.64
			c-0.08,0.25-0.16,0.49-0.28,0.72c-0.03,0.06-0.06,0.12-0.11,0.17c-0.06,0.06-0.1,0.05-0.12-0.03c-0.04-0.15-0.05-0.31-0.07-0.46
			c-0.06-0.62-0.1-1.24-0.14-1.86c-0.03-0.41-0.05-0.83-0.08-1.24c-0.04-0.55-0.07-1.11-0.11-1.66c-0.03-0.37-0.06-0.74-0.1-1.1
			c-0.03-0.27-0.05-0.54-0.12-0.8c-0.05-0.2-0.19-0.27-0.38-0.21c-0.1,0.03-0.2,0.08-0.29,0.13c-0.06,0.03-0.11,0.03-0.17,0
			c-0.09-0.05-0.19-0.1-0.29-0.12C9.53,7.34,9.45,7.34,9.36,7.38C9.31,7.4,9.27,7.44,9.25,7.5C9.21,7.64,9.19,7.79,9.17,7.94
			c-0.1,0.75-0.15,1.5-0.2,2.25c-0.04,0.63-0.08,1.26-0.12,1.89c-0.03,0.52-0.07,1.05-0.11,1.57c-0.02,0.3-0.04,0.6-0.09,0.9
			c-0.01,0.06-0.02,0.12-0.03,0.17c-0.02,0.06-0.05,0.07-0.1,0.03c-0.04-0.03-0.07-0.08-0.1-0.12c-0.1-0.18-0.17-0.36-0.24-0.55
			C8.11,13.86,8.03,13.64,8,13.41c-0.02-0.14-0.02-0.28-0.03-0.42c-0.03-0.47-0.06-0.95-0.08-1.42c-0.02-0.35-0.04-0.71-0.06-1.06
			c-0.03-0.54-0.07-1.08-0.1-1.62c0-0.01,0-0.03-0.01-0.04C7.7,8.84,7.69,8.86,7.68,8.87C7.64,8.92,7.59,8.96,7.53,8.99
			C7.42,9.04,7.3,9.03,7.2,8.96c-0.13-0.1-0.26-0.2-0.37-0.31C6.83,8.64,6.82,8.64,6.82,8.63c-0.1-0.11-0.1-0.19-0.01-0.3
			C6.83,8.3,6.85,8.28,6.87,8.26c0.21-0.21,0.42-0.42,0.63-0.62c0.03-0.03,0.07-0.06,0.1-0.09c0.01-0.01,0.03-0.03,0.02-0.05
			C7.61,7.47,7.58,7.47,7.56,7.47C7.47,7.46,7.38,7.48,7.3,7.51C7.17,7.54,7.04,7.59,6.91,7.64C6.88,7.66,6.86,7.65,6.84,7.64
			C6.75,7.57,6.73,7.47,6.78,7.37c0.02-0.04,0.05-0.08,0.09-0.12C6.94,7.18,7.01,7.1,7.06,7.01c0.08-0.15,0.21-0.22,0.37-0.25
			c0.13-0.02,0.26-0.03,0.39-0.07C7.88,6.67,7.95,6.65,8,6.61c0.01-0.01,0.03-0.03,0.03-0.05c0-0.02-0.03-0.02-0.04-0.02
			c-0.23-0.05-0.47-0.1-0.71-0.13C7.21,6.4,7.2,6.37,7.23,6.31c0.01-0.03,0.03-0.06,0.06-0.08c0.18-0.18,0.35-0.38,0.56-0.53
			c0.36-0.27,0.77-0.4,1.23-0.36c0.15,0.02,0.3,0.04,0.45,0.08c0.02,0,0.04,0.01,0.04,0.03c0,0.02-0.03,0.02-0.05,0.02
			C9.38,5.49,9.26,5.51,9.13,5.53c-0.05,0.01-0.1,0.02-0.15,0.04C8.93,5.59,8.93,5.61,8.95,5.66c0.06,0.12,0.12,0.25,0.21,0.36
			c0.11,0.14,0.25,0.22,0.42,0.23C9.72,6.26,9.85,6.28,9.98,6.3c0.04,0,0.09-0.01,0.13-0.01c0.11-0.01,0.23-0.02,0.34-0.04
			c0.15-0.02,0.27-0.1,0.37-0.22c0.09-0.11,0.16-0.25,0.22-0.38c0.02-0.04,0-0.06-0.04-0.07c-0.05-0.02-0.1-0.03-0.16-0.04
			c-0.12-0.02-0.24-0.03-0.36-0.05c-0.01,0-0.01,0-0.02,0c-0.01,0-0.04-0.01-0.04-0.02c0-0.02,0.02-0.02,0.03-0.03
			c0.11-0.03,0.22-0.05,0.32-0.07C10.89,5.33,10.98,5.33,11.11,5.33z"/>
	</g>
</g>
</svg>
